<svg width="1930" height="746" viewBox="0 0 1930 746" fill="none" xmlns="http://www.w3.org/2000/svg">
<g clip-path="url(#clip0_1_2)">
<mask id="mask0_1_2" style="mask-type:luminance" maskUnits="userSpaceOnUse" x="-352" y="-980" width="2667" height="2667">
<path d="M-352 -980H2314.67V1686.67H-352V-980Z" fill="white"/>
</mask>
<g mask="url(#mask0_1_2)">
<path d="M1692.84 85.6295C1632.2 50.0989 1561.6 29.7255 1486.25 29.7255C1313.74 29.7255 1166.16 136.472 1105.96 287.522C1174.55 157.64 1310.97 69.1309 1468.07 69.1309C1508.09 69.1309 1546.75 74.9109 1583.31 85.6295H1692.84Z" fill="#FFAA00"/>
<path d="M1895.48 438.953C1895.48 360.553 1873.43 287.312 1835.19 225.077C1826.37 233.9 1817.54 242.722 1808.72 251.546C1852.03 316.469 1877.29 394.466 1877.29 478.37C1877.29 531.813 1867.05 582.86 1848.43 629.65C1878.48 572.706 1895.48 507.818 1895.48 438.953Z" fill="#FFAA00"/>
<path d="M1173.92 494.106L1429.99 512.636L1186.37 473.785C1158.64 469.362 1144.83 444.878 1158.5 424.366L1233.28 312.17L1134.94 421.669C1108.57 451.026 1130.05 490.932 1173.92 494.106Z" fill="#FFFFFF"/>
<path d="M1633.36 211.365C1667.7 209.747 1702.04 208.131 1736.38 206.512C1743.78 206.163 1753.25 198.616 1757.53 189.657C1770.32 162.881 1783.11 136.105 1795.91 109.331C1800.19 100.372 1797.67 93.9387 1790.29 94.9627C1756.01 99.7147 1721.73 104.467 1687.45 109.217C1680.07 110.241 1670.6 117.571 1666.3 125.588C1653.45 149.552 1640.6 173.517 1627.75 197.48C1623.45 205.497 1625.96 211.716 1633.36 211.365Z" fill="#FFFFFF"/>
<path d="M1492.26 218.018C1526.6 216.4 1560.94 214.781 1595.28 213.162C1602.68 212.814 1612.16 206.094 1616.46 198.161C1629.32 174.441 1642.17 150.724 1655.03 127.004C1659.33 119.068 1656.83 113.465 1649.44 114.488C1615.16 119.241 1580.89 123.99 1546.61 128.741C1539.22 129.768 1529.74 136.266 1525.41 143.262C1512.5 164.169 1499.59 185.077 1486.68 205.982C1482.36 212.978 1484.86 218.368 1492.26 218.018Z" fill="#FFFFFF"/>
<path d="M1351.16 224.669C1385.5 223.05 1419.84 221.432 1454.18 219.813C1461.58 219.464 1471.08 213.578 1475.4 206.665C1488.31 186.001 1501.23 165.338 1514.14 144.676C1518.47 137.762 1515.98 132.988 1508.6 134.01C1474.32 138.764 1440.04 143.516 1405.76 148.266C1398.38 149.289 1388.87 154.962 1384.53 160.936C1368.97 182.356 1361.18 193.065 1345.62 214.485C1341.28 220.458 1343.76 225.018 1351.16 224.669Z" fill="#FFFFFF"/>
<path d="M1570.25 330.54C1604.66 332.576 1639.08 334.612 1673.49 336.65C1680.9 337.088 1690.38 330.182 1694.67 321.221C1707.46 294.446 1720.25 267.672 1733.04 240.896C1737.33 231.936 1734.8 224.865 1727.4 225.102C1693.05 226.197 1658.69 227.296 1624.34 228.392C1616.94 228.629 1607.46 235.318 1603.16 243.338C1590.31 267.301 1577.46 291.264 1564.61 315.226C1560.31 323.246 1562.84 330.102 1570.25 330.54Z" fill="#FFFFFF"/>
<path d="M1428.85 322.174C1463.26 324.21 1497.67 326.246 1532.09 328.282C1539.5 328.721 1549 322.643 1553.3 314.709C1566.15 290.987 1579.01 267.269 1591.86 243.551C1596.17 235.613 1593.65 229.371 1586.25 229.607C1551.9 230.705 1517.55 231.802 1483.2 232.898C1475.8 233.134 1466.3 238.995 1461.98 245.993C1449.07 266.899 1436.16 287.806 1423.25 308.713C1418.92 315.709 1421.43 321.735 1428.85 322.174Z" fill="#FFFFFF"/>
<path d="M1287.45 313.804C1321.86 315.843 1356.27 317.879 1390.69 319.915C1398.1 320.355 1407.62 315.107 1411.94 308.192C1424.85 287.528 1437.77 266.868 1450.68 246.204C1455 239.291 1452.51 233.877 1445.11 234.112C1410.76 235.209 1376.41 236.305 1342.06 237.403C1334.66 237.639 1325.14 242.672 1320.8 248.644C1305.23 270.067 1297.45 280.776 1281.88 302.196C1277.54 308.169 1280.03 313.367 1287.45 313.804Z" fill="#FFFFFF"/>
<path d="M1507.14 449.715C1541.63 455.405 1576.11 461.097 1610.6 466.789C1618.03 468.017 1627.52 461.747 1631.8 452.789C1644.59 426.013 1657.39 399.237 1670.18 372.461C1674.46 363.502 1671.92 355.791 1664.5 355.241C1630.08 352.681 1595.66 350.123 1561.23 347.566C1553.82 347.015 1544.32 353.069 1540.02 361.086C1527.17 385.05 1514.32 409.014 1501.47 432.978C1497.17 440.994 1499.71 448.49 1507.14 449.715Z" fill="#FFFFFF"/>
<path d="M1365.44 426.328C1399.93 432.019 1434.41 437.71 1468.9 443.404C1476.33 444.63 1485.84 439.19 1490.14 431.252C1502.99 407.536 1515.85 383.816 1528.7 360.098C1533 352.162 1530.48 345.28 1523.06 344.73C1488.64 342.17 1454.21 339.612 1419.79 337.052C1412.37 336.502 1402.86 341.727 1398.54 348.722C1385.63 369.628 1372.72 390.536 1359.81 411.442C1355.49 418.438 1358.01 425.102 1365.44 426.328Z" fill="#FFFFFF"/>
<path d="M1223.74 402.943C1258.23 408.634 1292.71 414.325 1327.2 420.017C1334.63 421.242 1344.15 416.633 1348.48 409.718C1361.39 389.057 1374.3 368.395 1387.22 347.733C1391.54 340.819 1389.03 334.767 1381.62 334.215C1347.19 331.657 1312.77 329.098 1278.35 326.541C1270.93 325.989 1261.4 330.382 1257.06 336.355C1241.49 357.775 1233.71 368.486 1218.15 389.907C1213.8 395.881 1216.31 401.717 1223.74 402.943Z" fill="#FFFFFF"/>
<path d="M1613.34 482.032L1204.42 412.372C1210.1 425.472 1222.04 438.104 1228.07 439.497L1609.4 504.982C1612.3 505.446 1615.19 505.678 1618.09 505.678C1637.91 505.678 1656.46 494.32 1665.15 476.122L1816.87 157.613C1823.01 144.749 1829.62 125.042 1816.64 102.442L1644.06 466.153C1638.61 477.629 1625.97 484.118 1613.34 482.032Z" fill="#FFFFFF"/>
<path d="M206.697 643.127V567.545H264.947V651.651L206.697 643.127ZM178.282 676.941C162.179 676.941 147.355 674.427 133.814 669.41C120.269 664.394 108.525 657.241 98.5808 647.958C88.6355 638.678 80.9141 627.69 75.4221 614.997C69.9261 602.309 67.1821 588.287 67.1821 572.945C67.1821 557.601 69.9261 543.583 75.4221 530.891C80.9141 518.202 88.6795 507.214 98.7221 497.93C108.761 488.651 120.646 481.498 134.382 476.477C148.114 471.459 163.223 468.947 179.703 468.947C199.402 468.947 216.97 472.263 232.411 478.893C247.849 485.526 260.586 494.995 270.63 507.306L227.723 545.098C221.473 537.901 214.697 532.454 207.407 528.759C200.113 525.065 192.014 523.218 183.113 523.218C175.725 523.218 169.047 524.355 163.081 526.629C157.114 528.902 152.043 532.218 147.879 536.574C143.71 540.933 140.491 546.141 138.218 552.201C135.945 558.266 134.809 565.178 134.809 572.945C134.809 580.331 135.945 587.106 138.218 593.261C140.491 599.418 143.71 604.674 147.879 609.03C152.043 613.39 157.017 616.751 162.797 619.117C168.573 621.489 175.059 622.669 182.261 622.669C189.834 622.669 197.223 621.39 204.423 618.833C211.621 616.275 219.293 611.871 227.439 605.621L264.947 651.651C252.821 659.798 238.991 666.05 223.461 670.405C207.927 674.761 192.867 676.941 178.282 676.941Z" fill="#FFAA00"/>
<path d="M397.924 622.669C404.175 622.669 410 621.532 415.399 619.258C420.798 616.985 425.531 613.718 429.607 609.456C433.678 605.194 436.852 599.986 439.126 593.829C441.399 587.676 442.535 580.713 442.535 572.944C442.535 565.178 441.399 558.217 439.126 552.06C436.852 545.906 433.678 540.693 429.607 536.432C425.531 532.169 420.798 528.902 415.399 526.629C410 524.356 404.175 523.218 397.924 523.218C391.674 523.218 385.848 524.356 380.45 526.629C375.051 528.902 370.314 532.169 366.243 536.432C362.167 540.693 358.996 545.906 356.724 552.06C354.451 558.217 353.314 565.178 353.314 572.944C353.314 580.713 354.451 587.676 356.724 593.829C358.996 599.986 362.167 605.194 366.243 609.456C370.314 613.718 375.051 616.985 380.45 619.258C385.848 621.532 391.674 622.669 397.924 622.669ZM398.208 676.941C381.915 676.941 366.904 674.384 353.172 669.268C339.435 664.154 327.55 656.908 317.512 647.532C307.468 638.154 299.655 627.122 294.07 614.429C288.48 601.74 285.688 587.91 285.688 572.944C285.688 557.79 288.48 543.917 294.07 531.317C299.655 518.721 307.468 507.733 317.512 498.356C327.55 488.98 339.435 481.733 353.172 476.62C366.904 471.505 381.822 468.946 397.924 468.946C414.215 468.946 429.18 471.505 442.819 476.62C456.458 481.733 468.295 488.98 478.338 498.356C488.375 507.733 496.19 518.721 501.779 531.317C507.364 543.917 510.162 557.79 510.162 572.944C510.162 587.91 507.364 601.74 501.779 614.429C496.19 627.122 488.375 638.154 478.338 647.532C468.295 656.908 456.458 664.154 442.819 669.268C429.18 674.384 414.307 676.941 398.208 676.941Z" fill="#FFAA00"/>
<path d="M638.876 622.669C645.127 622.669 650.952 621.532 656.351 619.258C661.75 616.985 666.483 613.718 670.559 609.456C674.63 605.194 677.804 599.986 680.078 593.829C682.351 587.676 683.487 580.713 683.487 572.944C683.487 565.178 682.351 558.217 680.078 552.06C677.804 545.906 674.63 540.693 670.559 536.432C666.483 532.169 661.75 528.902 656.351 526.629C650.952 524.356 645.127 523.218 638.876 523.218C632.626 523.218 626.8 524.356 621.402 526.629C616.003 528.902 611.266 532.169 607.195 536.432C603.119 540.693 599.948 545.906 597.676 552.06C595.403 558.217 594.266 565.178 594.266 572.944C594.266 580.713 595.403 587.676 597.676 593.829C599.948 599.986 603.119 605.194 607.195 609.456C611.266 613.718 616.003 616.985 621.402 619.258C626.8 621.532 632.626 622.669 638.876 622.669ZM639.16 676.941C622.867 676.941 607.856 674.384 594.124 669.268C580.387 664.154 568.502 656.908 558.464 647.532C548.42 638.154 540.607 627.122 535.022 614.429C529.432 601.74 526.64 587.91 526.64 572.944C526.64 557.79 529.432 543.917 535.022 531.317C540.607 518.721 548.42 507.733 558.464 498.356C568.502 488.98 580.387 481.733 594.124 476.62C607.856 471.505 622.774 468.946 638.876 468.946C655.167 468.946 670.132 471.505 683.771 476.62C697.41 481.733 709.247 488.98 719.29 498.356C729.327 507.733 737.142 518.721 742.731 531.317C748.316 543.917 751.114 557.79 751.114 572.944C751.114 587.91 748.316 601.74 742.731 614.429C737.142 627.122 729.327 638.154 719.29 647.532C709.247 656.908 697.41 664.154 683.771 669.268C670.132 674.384 655.259 676.941 639.16 676.941Z" fill="#FFAA00"/>
<path d="M842.605 620.112H870.735C880.205 620.112 888.494 618.313 895.598 614.713C902.701 611.117 908.242 605.762 912.221 598.658C916.198 591.556 918.187 582.889 918.187 572.66C918.187 562.622 916.198 554.097 912.221 547.086C908.242 540.081 902.701 534.776 895.598 531.176C888.494 527.578 880.205 525.776 870.735 525.776H842.605V620.112ZM775.547 672.394V473.493H873.577C895.739 473.493 915.247 477.52 932.11 485.569C948.967 493.624 962.131 505.033 971.606 519.809C981.077 534.585 985.814 552.201 985.814 572.66C985.814 593.309 981.077 611.068 971.606 625.937C962.131 640.809 948.967 652.269 932.11 660.318C915.247 668.372 895.739 672.394 873.577 672.394H775.547Z" fill="#FFAA00"/>
<path d="M1079.92 674.675C1072.7 674.675 1065.71 674.011 1058.94 672.681C1052.16 671.352 1046.02 669.548 1040.52 667.269C1035.01 664.991 1030.36 662.523 1026.56 659.864L1039.09 636.128C1043.27 639.041 1047.73 641.539 1052.48 643.628C1057.23 645.716 1062.19 647.301 1067.39 648.375C1072.57 649.452 1077.76 649.989 1082.96 649.989C1088.65 649.989 1093.56 649.357 1097.67 648.091C1101.78 646.827 1104.95 645.052 1107.17 642.773C1109.38 640.495 1110.49 637.712 1110.49 634.419C1110.49 631.38 1109.28 628.912 1106.88 627.013C1104.48 625.115 1101.34 623.5 1097.48 622.171C1093.62 620.841 1089.35 619.545 1084.67 618.279C1079.98 617.015 1075.27 615.525 1070.52 613.816C1065.77 612.107 1061.47 609.956 1057.61 607.36C1053.74 604.767 1050.61 601.444 1048.21 597.391C1045.8 593.341 1044.6 588.276 1044.6 582.2C1044.6 573.085 1047.1 565.176 1052.1 558.464C1057.1 551.756 1064.16 546.535 1073.27 542.799C1082.39 539.067 1093.08 537.197 1105.36 537.197C1114.35 537.197 1122.83 538.179 1130.81 540.14C1138.78 542.104 1145.62 544.92 1151.32 548.591L1139.73 572.136C1134.67 568.717 1129.03 566.155 1122.83 564.445C1116.63 562.737 1110.23 561.881 1103.65 561.881C1097.7 561.881 1092.61 562.58 1088.37 563.971C1084.12 565.365 1080.9 567.295 1078.68 569.761C1076.47 572.231 1075.36 575.049 1075.36 578.212C1075.36 581.377 1076.53 583.941 1078.87 585.903C1081.22 587.868 1084.35 589.511 1088.27 590.84C1092.2 592.169 1096.5 593.469 1101.18 594.732C1105.87 595.999 1110.55 597.456 1115.24 599.1C1119.92 600.747 1124.22 602.835 1128.15 605.367C1132.07 607.9 1135.24 611.095 1137.64 614.956C1140.05 618.817 1141.25 623.66 1141.25 629.481C1141.25 638.596 1138.72 646.541 1133.66 653.313C1128.59 660.087 1121.47 665.34 1112.29 669.073C1103.11 672.805 1092.32 674.675 1079.92 674.675Z" fill="#FFFFFF"/>
<path d="M1226.32 648.47C1233.79 648.47 1240.53 647.11 1246.54 644.387C1252.55 641.666 1257.65 637.902 1261.83 633.09C1266 628.279 1269.2 622.741 1271.42 616.474C1273.63 610.209 1274.74 603.595 1274.74 596.631C1274.74 590.051 1273.34 584.259 1270.56 579.257C1267.78 574.258 1263.69 570.365 1258.31 567.578C1252.93 564.795 1246.32 563.401 1238.47 563.401C1231 563.401 1224.29 564.763 1218.34 567.483C1212.39 570.207 1207.3 573.973 1203.06 578.781C1198.81 583.594 1195.59 589.13 1193.37 595.397C1191.16 601.663 1190.05 608.279 1190.05 615.239C1190.05 621.825 1191.47 627.615 1194.32 632.614C1197.17 637.617 1201.28 641.509 1206.66 644.293C1212.04 647.078 1218.6 648.47 1226.32 648.47ZM1223.66 674.674C1210.24 674.674 1198.69 672.238 1189.01 667.363C1179.32 662.493 1171.88 655.719 1166.69 647.046C1161.5 638.377 1158.91 628.342 1158.91 616.949C1158.91 605.555 1160.87 595.017 1164.79 585.333C1168.72 575.649 1174.32 567.231 1181.6 560.078C1188.88 552.927 1197.55 547.326 1207.61 543.274C1217.68 539.222 1228.85 537.197 1241.13 537.197C1254.55 537.197 1266.1 539.635 1275.78 544.507C1285.47 549.382 1292.9 556.157 1298.1 564.826C1303.28 573.498 1305.88 583.529 1305.88 594.922C1305.88 606.315 1303.92 616.854 1299.99 626.538C1296.07 636.222 1290.47 644.643 1283.19 651.793C1275.91 658.946 1267.24 664.549 1257.18 668.598C1247.11 672.649 1235.94 674.674 1223.66 674.674Z" fill="#FFFFFF"/>
<path d="M1314.99 672.396L1341.58 539.476H1372.53L1350.88 647.331H1417.53L1412.4 672.396H1314.99Z" fill="#FFFFFF"/>
<path d="M1429.68 672.396L1456.27 539.476H1487.22L1465.57 647.331H1532.22L1527.09 672.396H1429.68Z" fill="#FFFFFF"/>
<path d="M1563.17 643.913L1575.7 620.557H1644.25L1647.86 643.913H1563.17ZM1527.66 672.395L1613.49 539.475H1644.06L1676.72 672.395H1645.96L1620.14 554.666H1632.29L1560.51 672.395H1527.66Z" fill="#FFFFFF"/>
<path d="M1776.03 672.396L1748.88 624.164H1781.16L1808.5 672.396H1776.03ZM1730.84 625.304L1720.2 610.683H1759.89C1770.14 610.683 1778.09 608.375 1783.72 603.752C1789.35 599.133 1792.17 592.392 1792.17 583.529C1792.17 577.073 1789.99 572.296 1785.62 569.193C1781.25 566.092 1775.14 564.54 1767.3 564.54H1729.89L1746.03 549.539L1730.84 625.304ZM1690.58 672.396L1717.17 539.476H1771.28C1787.87 539.476 1800.68 543.084 1809.74 550.3C1818.78 557.515 1823.31 567.644 1823.31 580.681C1823.31 591.821 1820.68 601.473 1815.43 609.639C1810.18 617.804 1802.71 624.103 1793.03 628.533C1783.34 632.965 1771.92 635.179 1758.75 635.179H1715.46L1731.6 621.697L1721.53 672.396H1690.58Z" fill="#FFFFFF"/>
</g>
</g>
<defs>
<clipPath id="clip0_1_2">
<rect width="1828" height="647" fill="white" transform="translate(67 30)"/>
</clipPath>
</defs>
</svg>
